<?xml version="1.0" encoding="UTF-8" ?>
<svg version="1.1" width="24" height="24" xmlns="http://www.w3.org/2000/svg" shape-rendering="crispEdges">
<rect x="9" y="3" width="1" height="1" fill="#1E1E1E" />
<rect x="10" y="3" width="1" height="1" fill="#1E1E1E" />
<rect x="11" y="3" width="1" height="1" fill="#1E1E1E" />
<rect x="12" y="3" width="1" height="1" fill="#1E1E1E" />
<rect x="13" y="3" width="1" height="1" fill="#1E1E1E" />
<rect x="14" y="3" width="1" height="1" fill="#1E1E1E" />
<rect x="9" y="4" width="1" height="1" fill="#1E1E1E" />
<rect x="10" y="4" width="1" height="1" fill="#1E1E1E" />
<rect x="11" y="4" width="1" height="1" fill="#1E1E1E" />
<rect x="12" y="4" width="1" height="1" fill="#1E1E1E" />
<rect x="13" y="4" width="1" height="1" fill="#1E1E1E" />
<rect x="14" y="4" width="1" height="1" fill="#1E1E1E" />
<rect x="9" y="5" width="1" height="1" fill="#1E1E1E" />
<rect x="10" y="5" width="1" height="1" fill="#1E1E1E" />
<rect x="11" y="5" width="1" height="1" fill="#1E1E1E" />
<rect x="12" y="5" width="1" height="1" fill="#1E1E1E" />
<rect x="13" y="5" width="1" height="1" fill="#1E1E1E" />
<rect x="14" y="5" width="1" height="1" fill="#1E1E1E" />
<rect x="6" y="6" width="1" height="1" fill="#1E1E1E" />
<rect x="7" y="6" width="1" height="1" fill="#1E1E1E" />
<rect x="8" y="6" width="1" height="1" fill="#1E1E1E" />
<rect x="15" y="6" width="1" height="1" fill="#1E1E1E" />
<rect x="16" y="6" width="1" height="1" fill="#1E1E1E" />
<rect x="17" y="6" width="1" height="1" fill="#1E1E1E" />
<rect x="6" y="7" width="1" height="1" fill="#1E1E1E" />
<rect x="7" y="7" width="1" height="1" fill="#1E1E1E" />
<rect x="8" y="7" width="1" height="1" fill="#1E1E1E" />
<rect x="15" y="7" width="1" height="1" fill="#1E1E1E" />
<rect x="16" y="7" width="1" height="1" fill="#1E1E1E" />
<rect x="17" y="7" width="1" height="1" fill="#1E1E1E" />
<rect x="6" y="8" width="1" height="1" fill="#1E1E1E" />
<rect x="7" y="8" width="1" height="1" fill="#1E1E1E" />
<rect x="8" y="8" width="1" height="1" fill="#1E1E1E" />
<rect x="15" y="8" width="1" height="1" fill="#1E1E1E" />
<rect x="16" y="8" width="1" height="1" fill="#1E1E1E" />
<rect x="17" y="8" width="1" height="1" fill="#1E1E1E" />
<rect x="3" y="9" width="1" height="1" fill="#1E1E1E" />
<rect x="4" y="9" width="1" height="1" fill="#1E1E1E" />
<rect x="5" y="9" width="1" height="1" fill="#1E1E1E" />
<rect x="18" y="9" width="1" height="1" fill="#1E1E1E" />
<rect x="19" y="9" width="1" height="1" fill="#1E1E1E" />
<rect x="20" y="9" width="1" height="1" fill="#1E1E1E" />
<rect x="3" y="10" width="1" height="1" fill="#1E1E1E" />
<rect x="4" y="10" width="1" height="1" fill="#1E1E1E" />
<rect x="5" y="10" width="1" height="1" fill="#1E1E1E" />
<rect x="18" y="10" width="1" height="1" fill="#1E1E1E" />
<rect x="19" y="10" width="1" height="1" fill="#1E1E1E" />
<rect x="20" y="10" width="1" height="1" fill="#1E1E1E" />
<rect x="3" y="11" width="1" height="1" fill="#1E1E1E" />
<rect x="4" y="11" width="1" height="1" fill="#1E1E1E" />
<rect x="5" y="11" width="1" height="1" fill="#1E1E1E" />
<rect x="18" y="11" width="1" height="1" fill="#1E1E1E" />
<rect x="19" y="11" width="1" height="1" fill="#1E1E1E" />
<rect x="20" y="11" width="1" height="1" fill="#1E1E1E" />
<rect x="3" y="12" width="1" height="1" fill="#1E1E1E" />
<rect x="4" y="12" width="1" height="1" fill="#1E1E1E" />
<rect x="5" y="12" width="1" height="1" fill="#1E1E1E" />
<rect x="18" y="12" width="1" height="1" fill="#1E1E1E" />
<rect x="19" y="12" width="1" height="1" fill="#1E1E1E" />
<rect x="20" y="12" width="1" height="1" fill="#1E1E1E" />
<rect x="3" y="13" width="1" height="1" fill="#1E1E1E" />
<rect x="4" y="13" width="1" height="1" fill="#1E1E1E" />
<rect x="5" y="13" width="1" height="1" fill="#1E1E1E" />
<rect x="18" y="13" width="1" height="1" fill="#1E1E1E" />
<rect x="19" y="13" width="1" height="1" fill="#1E1E1E" />
<rect x="20" y="13" width="1" height="1" fill="#1E1E1E" />
<rect x="3" y="14" width="1" height="1" fill="#1E1E1E" />
<rect x="4" y="14" width="1" height="1" fill="#1E1E1E" />
<rect x="5" y="14" width="1" height="1" fill="#1E1E1E" />
<rect x="18" y="14" width="1" height="1" fill="#1E1E1E" />
<rect x="19" y="14" width="1" height="1" fill="#1E1E1E" />
<rect x="20" y="14" width="1" height="1" fill="#1E1E1E" />
<rect x="6" y="15" width="1" height="1" fill="#1E1E1E" />
<rect x="7" y="15" width="1" height="1" fill="#1E1E1E" />
<rect x="8" y="15" width="1" height="1" fill="#1E1E1E" />
<rect x="15" y="15" width="1" height="1" fill="#1E1E1E" />
<rect x="16" y="15" width="1" height="1" fill="#1E1E1E" />
<rect x="17" y="15" width="1" height="1" fill="#1E1E1E" />
<rect x="18" y="15" width="1" height="1" fill="#1E1E1E" />
<rect x="19" y="15" width="1" height="1" fill="#1E1E1E" />
<rect x="20" y="15" width="1" height="1" fill="#1E1E1E" />
<rect x="6" y="16" width="1" height="1" fill="#1E1E1E" />
<rect x="7" y="16" width="1" height="1" fill="#1E1E1E" />
<rect x="8" y="16" width="1" height="1" fill="#1E1E1E" />
<rect x="15" y="16" width="1" height="1" fill="#1E1E1E" />
<rect x="16" y="16" width="1" height="1" fill="#1E1E1E" />
<rect x="17" y="16" width="1" height="1" fill="#1E1E1E" />
<rect x="18" y="16" width="1" height="1" fill="#1E1E1E" />
<rect x="19" y="16" width="1" height="1" fill="#1E1E1E" />
<rect x="20" y="16" width="1" height="1" fill="#1E1E1E" />
<rect x="6" y="17" width="1" height="1" fill="#1E1E1E" />
<rect x="7" y="17" width="1" height="1" fill="#1E1E1E" />
<rect x="8" y="17" width="1" height="1" fill="#1E1E1E" />
<rect x="15" y="17" width="1" height="1" fill="#1E1E1E" />
<rect x="16" y="17" width="1" height="1" fill="#1E1E1E" />
<rect x="17" y="17" width="1" height="1" fill="#1E1E1E" />
<rect x="18" y="17" width="1" height="1" fill="#1E1E1E" />
<rect x="19" y="17" width="1" height="1" fill="#1E1E1E" />
<rect x="20" y="17" width="1" height="1" fill="#1E1E1E" />
<rect x="9" y="18" width="1" height="1" fill="#1E1E1E" />
<rect x="10" y="18" width="1" height="1" fill="#1E1E1E" />
<rect x="11" y="18" width="1" height="1" fill="#1E1E1E" />
<rect x="12" y="18" width="1" height="1" fill="#1E1E1E" />
<rect x="13" y="18" width="1" height="1" fill="#1E1E1E" />
<rect x="14" y="18" width="1" height="1" fill="#1E1E1E" />
<rect x="15" y="18" width="1" height="1" fill="#1E1E1E" />
<rect x="16" y="18" width="1" height="1" fill="#1E1E1E" />
<rect x="17" y="18" width="1" height="1" fill="#1E1E1E" />
<rect x="9" y="19" width="1" height="1" fill="#1E1E1E" />
<rect x="10" y="19" width="1" height="1" fill="#1E1E1E" />
<rect x="11" y="19" width="1" height="1" fill="#1E1E1E" />
<rect x="12" y="19" width="1" height="1" fill="#1E1E1E" />
<rect x="13" y="19" width="1" height="1" fill="#1E1E1E" />
<rect x="14" y="19" width="1" height="1" fill="#1E1E1E" />
<rect x="15" y="19" width="1" height="1" fill="#1E1E1E" />
<rect x="16" y="19" width="1" height="1" fill="#1E1E1E" />
<rect x="17" y="19" width="1" height="1" fill="#1E1E1E" />
<rect x="9" y="20" width="1" height="1" fill="#1E1E1E" />
<rect x="10" y="20" width="1" height="1" fill="#1E1E1E" />
<rect x="11" y="20" width="1" height="1" fill="#1E1E1E" />
<rect x="12" y="20" width="1" height="1" fill="#1E1E1E" />
<rect x="13" y="20" width="1" height="1" fill="#1E1E1E" />
<rect x="14" y="20" width="1" height="1" fill="#1E1E1E" />
<rect x="15" y="20" width="1" height="1" fill="#1E1E1E" />
<rect x="16" y="20" width="1" height="1" fill="#1E1E1E" />
<rect x="17" y="20" width="1" height="1" fill="#1E1E1E" />
</svg>